<svg xmlns="http://www.w3.org/2000/svg" width="450" height="280" viewBox="0 0 450 280" role="img" aria-label="Top languages">
  <defs>
    <linearGradient id="fade2" x1="0%" y1="0%" x2="100%" y2="0%">
      <stop offset="0%" stop-color="#58a6ff" stop-opacity="1" />
      <stop offset="100%" stop-color="#58a6ff" stop-opacity="0" />
    </linearGradient>
  </defs>
  <text x="20" y="30" fill="#e6edf3" font-size="16" font-weight="800" letter-spacing="2" font-family="-apple-system, sans-serif">TOP LANGUAGES</text>
  <rect x="20" y="45" width="150" height="1" fill="url(#fade2)"/>
  <text x="20" y="75" fill="#8b949e" font-size="12" font-weight="600" letter-spacing="1" font-family="-apple-system, sans-serif">C++</text><text x="420" y="75" text-anchor="end" fill="#8b949e" font-size="12" font-family="Consolas, monospace">40%</text><rect x="130" y="70" width="240" height="4" rx="2" fill="#21262d"/><rect x="130" y="70" width="96" height="4" rx="2" fill="#58a6ff"/><circle cx="226" cy="72" r="3" fill="#ffffff" opacity="0.8"/><text x="20" y="112" fill="#8b949e" font-size="12" font-weight="600" letter-spacing="1" font-family="-apple-system, sans-serif">PYTHON</text><text x="420" y="112" text-anchor="end" fill="#8b949e" font-size="12" font-family="Consolas, monospace">33%</text><rect x="130" y="107" width="240" height="4" rx="2" fill="#21262d"/><rect x="130" y="107" width="80" height="4" rx="2" fill="#388bfd"/><circle cx="210" cy="109" r="3" fill="#ffffff" opacity="0.8"/><text x="20" y="149" fill="#8b949e" font-size="12" font-weight="600" letter-spacing="1" font-family="-apple-system, sans-serif">JAVASCRIPT</text><text x="420" y="149" text-anchor="end" fill="#8b949e" font-size="12" font-family="Consolas, monospace">13%</text><rect x="130" y="144" width="240" height="4" rx="2" fill="#21262d"/><rect x="130" y="144" width="32" height="4" rx="2" fill="#1f6feb"/><circle cx="162" cy="146" r="3" fill="#ffffff" opacity="0.8"/><text x="20" y="186" fill="#8b949e" font-size="12" font-weight="600" letter-spacing="1" font-family="-apple-system, sans-serif">HTML</text><text x="420" y="186" text-anchor="end" fill="#8b949e" font-size="12" font-family="Consolas, monospace">6%</text><rect x="130" y="181" width="240" height="4" rx="2" fill="#21262d"/><rect x="130" y="181" width="16" height="4" rx="2" fill="#0969da"/><circle cx="146" cy="183" r="3" fill="#ffffff" opacity="0.8"/><text x="20" y="223" fill="#8b949e" font-size="12" font-weight="600" letter-spacing="1" font-family="-apple-system, sans-serif">TYPESCRIPT</text><text x="420" y="223" text-anchor="end" fill="#8b949e" font-size="12" font-family="Consolas, monospace">6%</text><rect x="130" y="218" width="240" height="4" rx="2" fill="#21262d"/><rect x="130" y="218" width="16" height="4" rx="2" fill="#033d8b"/><circle cx="146" cy="220" r="3" fill="#ffffff" opacity="0.8"/>
</svg>